1.9Hzlow3min_grf.mot
version=1
nRows=17
nColumns 19
inDegrees=yes
endheader
time	1_ground_force_vx	1_ground_force_vy	1_ground_force_vz	1_ground_force_px	1_ground_force_py	1_ground_force_pz	1_ground_torque_x	1_ground_torque_y	1_ground_torque_z	2_ground_force_vx	2_ground_force_vy	2_ground_force_vz	2_ground_force_px	2_ground_force_py	2_ground_force_pz	2_ground_torque_x	2_ground_torque_y	2_ground_torque_z
            3.751500	          -22.714051	          921.793187	         -103.205225	           -0.239224	            0.006184	           -0.396541	           -0.011963	            0.485493	           -0.054356	          -49.647435	          917.249920	          109.258166	           -0.207591	            0.005971	           -0.764141	            0.027632	           -0.510510	           -0.060809
            3.752000	          -22.482846	          918.365855	         -102.670209	           -0.239034	            0.006184	           -0.396491	           -0.011003	            0.449441	           -0.050246	          -49.358315	          915.040790	          109.344017	           -0.207359	            0.005972	           -0.764184	            0.021647	           -0.401300	           -0.047954
            3.752500	          -22.206432	          915.299985	         -102.363037	           -0.238872	            0.006184	           -0.396516	           -0.007782	            0.320764	           -0.035873	          -48.882112	          912.834847	          108.725876	           -0.207193	            0.005973	           -0.764180	            0.022592	           -0.421893	           -0.050251
            3.753000	          -21.745636	          911.691811	         -101.691792	           -0.238602	            0.006184	           -0.396529	           -0.007981	            0.334617	           -0.037324	          -48.776651	          909.522204	          108.244728	           -0.207091	            0.005973	           -0.764199	            0.018518	           -0.345291	           -0.041094
            3.753500	          -21.697605	          908.444346	         -101.063843	           -0.238368	            0.006184	           -0.396381	           -0.004464	            0.186893	           -0.020792	          -48.065532	          907.133027	          107.625814	           -0.206920	            0.005974	           -0.764120	            0.018560	           -0.350271	           -0.041558
            3.754000	          -21.603440	          904.835904	         -100.345835	           -0.238306	            0.006184	           -0.396474	           -0.003598	            0.150699	           -0.016712	          -48.146641	          903.634167	          107.519514	           -0.206794	            0.005974	           -0.764147	            0.012776	           -0.239790	           -0.028532
            3.754500	          -21.235372	          901.950348	         -100.038118	           -0.238074	            0.006184	           -0.396474	           -0.003729	            0.158390	           -0.017567	          -47.480359	          900.692171	          106.945584	           -0.206527	            0.005975	           -0.764047	            0.011114	           -0.210824	           -0.025033
            3.755000	          -20.911928	          897.981359	          -99.322225	           -0.237887	            0.006184	           -0.396459	           -0.004226	            0.181485	           -0.020073	          -47.284525	          898.300631	          106.467682	           -0.206467	            0.005975	           -0.763991	            0.007489	           -0.142272	           -0.016862
            3.755500	          -20.681013	          894.915012	          -98.877367	           -0.237753	            0.006184	           -0.396375	           -0.002693	            0.116535	           -0.012876	          -46.760682	          895.909651	          106.130432	           -0.206302	            0.005975	           -0.763934	            0.003795	           -0.072719	           -0.008614
            3.756000	          -20.220511	          891.667702	          -98.296296	           -0.237540	            0.006184	           -0.396313	           -0.001911	            0.084261	           -0.009289	          -46.607060	          892.229064	          105.601014	           -0.206092	            0.005976	           -0.763922	            0.002383	           -0.045611	           -0.005398
            3.756500	          -19.897117	          888.599874	          -97.530686	           -0.237382	            0.006184	           -0.396422	            0.000269	           -0.011999	            0.001317	          -46.034433	          889.286394	          105.120981	           -0.206031	            0.005976	           -0.763946	            0.000841	           -0.016248	           -0.001921
            3.757000	          -19.482780	          884.632401	          -97.136015	           -0.237169	            0.006184	           -0.396315	            0.000463	           -0.021029	            0.002309	          -45.463197	          886.712508	          104.501485	           -0.205837	            0.005977	           -0.763938	           -0.003173	            0.061878	            0.007293
            3.757500	          -19.297318	          880.664171	          -96.603205	           -0.237033	            0.006184	           -0.396477	            0.001318	           -0.060166	            0.006600	          -45.171091	          883.585413	          103.833203	           -0.205677	            0.005977	           -0.763881	           -0.002219	            0.043401	            0.005100
            3.758000	          -18.882157	          877.776461	          -95.791182	           -0.236751	            0.006183	           -0.396259	            0.002210	           -0.102756	            0.011214	          -44.740944	          881.194095	          103.495977	           -0.205655	            0.005977	           -0.763908	           -0.005120	            0.100833	            0.011843
            3.758500	          -18.285410	          874.711758	          -95.714097	           -0.236645	            0.006184	           -0.396278	            0.001781	           -0.085193	            0.009322	          -44.309591	          878.435622	          102.875884	           -0.205451	            0.005978	           -0.763927	           -0.008533	            0.169159	            0.019811
            3.759000	          -18.007743	          871.643725	          -94.902506	           -0.236496	            0.006183	           -0.396196	            0.002432	           -0.117735	            0.012819	          -44.113695	          876.043580	          102.538758	           -0.205283	            0.005979	           -0.763892	           -0.013562	            0.269320	            0.031523
            3.759500	          -17.547226	          868.937107	          -94.273263	           -0.236335	            0.006183	           -0.396149	            0.002907	           -0.143964	            0.015619	          -43.399170	          872.732847	          102.104287	           -0.205204	            0.005978	           -0.763714	           -0.013956	            0.280638	            0.032833
